<?xml version="1.0" encoding="UTF-8" standalone="no"?>
<svg
   width="25"
   height="25"
   viewBox="0 0 25 25"
   version="1.1"
   xml:space="preserve"
   style="fill-rule:evenodd;clip-rule:evenodd;stroke-linejoin:round;stroke-miterlimit:2;"
   id="svg2"
   sodipodi:docname="iconSolarizedLightSmall.svg"
   inkscape:version="1.3.2 (091e20ef0f, 2023-11-25)"
   xmlns:inkscape="http://www.inkscape.org/namespaces/inkscape"
   xmlns:sodipodi="http://sodipodi.sourceforge.net/DTD/sodipodi-0.dtd"
   xmlns="http://www.w3.org/2000/svg"
   xmlns:svg="http://www.w3.org/2000/svg"><defs
   id="defs2" /><sodipodi:namedview
   id="namedview2"
   pagecolor="#ffffff"
   bordercolor="#000000"
   borderopacity="0.25"
   inkscape:showpageshadow="2"
   inkscape:pageopacity="0.0"
   inkscape:pagecheckerboard="0"
   inkscape:deskcolor="#d1d1d1"
   inkscape:zoom="24.68"
   inkscape:cx="9.2179903"
   inkscape:cy="8.4683955"
   inkscape:window-width="2536"
   inkscape:window-height="1356"
   inkscape:window-x="0"
   inkscape:window-y="0"
   inkscape:window-maximized="1"
   inkscape:current-layer="svg2" />
    <path
   d="M4.903,0c0.937,-0 1.697,0.76 1.697,1.697l0,23.303l-2.33,0c-1.132,0 -2.219,-0.45 -3.019,-1.251c-0.801,-0.8 -1.251,-1.887 -1.251,-3.019l-0,-19.033c0,-0.937 0.76,-1.697 1.697,-1.697l3.206,0Zm20.097,0l0,2.022c-0,1.214 -0.482,2.378 -1.341,3.237c-0.859,0.859 -2.023,1.341 -3.237,1.341l-11.042,0c-0.928,-0 -1.68,-0.752 -1.68,-1.68l0,-3.24c0,-0.928 0.752,-1.68 1.68,-1.68l15.62,0Z"
   style="fill:#fdf6e3;fill-opacity:1"
   id="path1" />
    <path
   d="M17.936,12.223c0.219,0.109 0.358,0.332 0.358,0.577c-0,0.245 -0.139,0.468 -0.358,0.577l-9.273,4.596c-0.207,0.102 -0.452,0.091 -0.648,-0.031c-0.196,-0.122 -0.315,-0.336 -0.315,-0.566l-0,-9.152c0,-0.23 0.119,-0.444 0.315,-0.566c0.196,-0.122 0.441,-0.133 0.648,-0.031l9.273,4.596Z"
   style="fill:#fdf6e3;fill-opacity:1"
   id="path2" />
</svg>
