<svg xmlns="http://www.w3.org/2000/svg" width="64" height="64" version="1">
 <path style="opacity:0.2" d="M 8.2,5 C 5.8732,5 4,6.8732001 4,9.2000001 V 21.8 44.2 56.8 C 4,59.1268 5.8732,61 8.2,61 H 20.8 33.960547 43.2 C 52.5072,61 60,53.5072 60,44.2 V 36.921093 21.8 9.2000001 C 60,6.8732001 58.1268,5 55.8,5 H 43.2 20.8 Z"/>
 <path style="fill:#e4e4e4" d="M 8.2,4 C 5.8732,4 4,5.8732001 4,8.2000001 V 20.8 43.2 55.8 C 4,58.1268 5.8732,60 8.2,60 H 20.8 33.960547 43.2 C 52.5072,60 60,52.5072 60,43.2 V 35.921093 20.8 8.2000001 C 60,5.8732001 58.1268,4 55.8,4 H 43.2 20.8 Z"/>
 <path style="opacity:0.1" d="M 14.75,13 C 13.2265,13 12,14.274565 12,15.857422 v 30 C 12,50.143136 17.5,53 20.25,53 H 23 v -2.857422 -4.285156 -30 C 23,14.274565 21.7735,13 20.25,13 Z m 14.091797,0 C 27.267271,13 26,14.2265 26,15.75 v 5.5 C 26,22.7735 27.267271,24 28.841797,24 H 45.894531 C 50.157689,24 53,18.5 53,15.75 V 13 H 50.158203 45.894531 Z M 27.320312,27 A 1.2913161,1.1414724 0 0 0 26,28.142578 v 7.359375 7.359375 a 1.2913161,1.1414724 0 0 0 1.935547,0.986328 l 7.210937,-3.679687 7.208985,-3.679688 a 1.2913161,1.1414724 0 0 0 0,-1.976562 L 35.146484,30.833984 27.935547,27.154297 A 1.2913161,1.1414724 0 0 0 27.320312,27 Z"/>
 <path style="fill:#f04242" d="M 14.75,12 C 13.2265,12 12,13.274286 12,14.857143 v 30 C 12,49.142857 17.5,52 20.25,52 H 23 v -2.857143 -4.285714 -30 C 23,13.274286 21.7735,12 20.25,12 Z"/>
 <path style="fill:#f04242" d="M 26,20.25 C 26,21.7735 27.267579,23 28.842105,23 H 45.894737 C 50.157895,23 53,17.5 53,14.75 V 12 H 50.157895 45.894737 28.842105 C 27.267579,12 26,13.2265 26,14.75 Z"/>
 <path style="fill:#14a4df" d="m 27.321275,26.000307 a 1.2913161,1.1414724 0 0 0 -1.321274,1.142629 v 7.358815 7.358816 a 1.2913161,1.1414724 0 0 0 1.936147,0.986925 l 7.209509,-3.679407 7.209511,-3.679409 a 1.2913161,1.1414724 0 0 0 0,-1.976244 l -7.209511,-3.679408 -7.209509,-3.679407 a 1.2913161,1.1414724 0 0 0 -0.614873,-0.15331 z"/>
 <path style="fill:#ffffff;opacity:0.2" d="M 8.1992188 4 C 5.8724189 4 4 5.8724189 4 8.1992188 L 4 9.1992188 C 4 6.8724189 5.8724189 5 8.1992188 5 L 55.800781 5 C 58.127581 5 60 6.8724189 60 9.1992188 L 60 8.1992188 C 60 5.8724189 58.127581 4 55.800781 4 L 8.1992188 4 z"/>
</svg>