<?xml version="1.0" encoding="UTF-8" standalone="no"?>
<svg
   width="25"
   height="25"
   viewBox="0 0 25 25"
   version="1.1"
   xml:space="preserve"
   style="clip-rule:evenodd;fill-rule:evenodd;stroke-linejoin:round;stroke-miterlimit:2"
   id="svg2"
   sodipodi:docname="iconNordicLightSmall.svg"
   xmlns:inkscape="http://www.inkscape.org/namespaces/inkscape"
   xmlns:sodipodi="http://sodipodi.sourceforge.net/DTD/sodipodi-0.dtd"
   xmlns="http://www.w3.org/2000/svg"
   xmlns:svg="http://www.w3.org/2000/svg"><defs
   id="defs2" /><sodipodi:namedview
   id="namedview2"
   pagecolor="#ffffff"
   bordercolor="#000000"
   borderopacity="0.25"
   inkscape:showpageshadow="2"
   inkscape:pageopacity="0.0"
   inkscape:pagecheckerboard="0"
   inkscape:deskcolor="#d1d1d1" />
    <path
   d="M 4.903,0 C 5.84,0 6.6,0.76 6.6,1.697 V 25 H 4.27 C 3.138,25 2.051,24.55 1.251,23.749 0.45,22.949 0,21.862 0,20.73 V 1.697 C 0,0.76 0.76,0 1.697,0 Z M 25,0 V 2.022 C 25,3.236 24.518,4.4 23.659,5.259 22.8,6.118 21.636,6.6 20.422,6.6 H 9.38 C 8.452,6.6 7.7,5.848 7.7,4.92 V 1.68 C 7.7,0.752 8.452,0 9.38,0 Z"
   style="fill:#282828;fill-opacity:0.866667"
   id="path1"
   inkscape:export-filename="iconGruvboxLightSmall.svg"
   inkscape:export-xdpi="96"
   inkscape:export-ydpi="96" />
    <path
   d="m 17.936,12.223 c 0.219,0.109 0.358,0.332 0.358,0.577 0,0.245 -0.139,0.468 -0.358,0.577 L 8.663,17.973 C 8.456,18.075 8.211,18.064 8.015,17.942 7.819,17.82 7.7,17.606 7.7,17.376 V 8.224 C 7.7,7.994 7.819,7.78 8.015,7.658 8.211,7.536 8.456,7.525 8.663,7.627 Z"
   style="fill:#282828;fill-opacity:0.866667"
   id="path2" />
</svg>
