<svg width="25" height="25" viewBox="0 0 25 25" version="1.1" xmlns="http://www.w3.org/2000/svg" xmlns:xlink="http://www.w3.org/1999/xlink" xml:space="preserve" style="fill-rule:evenodd;clip-rule:evenodd;stroke-linejoin:round;stroke-miterlimit:2;">
    <path d="M4.903,0c0.937,-0 1.697,0.76 1.697,1.697l0,23.303l-2.33,0c-1.132,0 -2.219,-0.45 -3.019,-1.251c-0.801,-0.8 -1.251,-1.887 -1.251,-3.019l-0,-19.033c0,-0.937 0.76,-1.697 1.697,-1.697l3.206,0Zm13.033,12.223c0.219,0.109 0.358,0.332 0.358,0.577c-0,0.245 -0.139,0.468 -0.358,0.577l-9.273,4.596c-0.207,0.102 -0.452,0.091 -0.648,-0.031c-0.196,-0.122 -0.315,-0.336 -0.315,-0.566l-0,-9.152c0,-0.23 0.119,-0.444 0.315,-0.566c0.196,-0.122 0.441,-0.133 0.648,-0.031l9.273,4.596Zm7.064,-12.223l0,2.022c-0,1.214 -0.482,2.378 -1.341,3.237c-0.859,0.859 -2.023,1.341 -3.237,1.341l-11.042,0c-0.928,-0 -1.68,-0.752 -1.68,-1.68l0,-3.24c0,-0.928 0.752,-1.68 1.68,-1.68l15.62,0Z" style="fill:#fff;"/>
</svg>
