<svg width="250" height="250" xmlns="http://www.w3.org/2000/svg" xml:space="preserve" style="fill-rule:evenodd;clip-rule:evenodd;stroke-linejoin:round;stroke-miterlimit:2"><path d="M49.027 0C58.401 0 66 7.599 66 16.973V250H42.701A42.7 42.7 0 0 1 0 207.299V16.973C0 7.599 7.599 0 16.973 0h32.054zm130.331 122.23a6.44 6.44 0 0 1 0 11.54l-92.732 45.959A6.667 6.667 0 0 1 77 173.756V82.244a6.667 6.667 0 0 1 9.626-5.973l92.732 45.959zM250 0v20.217A45.783 45.783 0 0 1 204.217 66H93.805C84.524 66 77 58.476 77 49.195v-32.39C77 7.524 84.524 0 93.805 0H250z"/></svg>