<svg width="25" height="25" xmlns="http://www.w3.org/2000/svg" style="fill-rule:evenodd;clip-rule:evenodd;stroke-linejoin:round;stroke-miterlimit:2"><path d="M4.903 0C5.84 0 6.6.76 6.6 1.697V25H4.27A4.268 4.268 0 0 1 0 20.73V1.697C0 .76.76 0 1.697 0h3.206zM25 0v2.022A4.577 4.577 0 0 1 20.422 6.6H9.38A1.68 1.68 0 0 1 7.7 4.92V1.68C7.7.752 8.452 0 9.38 0H25zm-7.064 12.223a.645.645 0 0 1 0 1.154l-9.273 4.596a.668.668 0 0 1-.963-.597V8.224a.667.667 0 0 1 .963-.597l9.273 4.596z" style="fill:#c6d0f5"/></svg>