<svg xmlns="http://www.w3.org/2000/svg" width="64" height="64" version="1"><path style="opacity:.2" d="M8.2 5A4.19 4.19 0 0 0 4 9.2v47.6A4.19 4.19 0 0 0 8.2 61h35C52.507 61 60 53.507 60 44.2v-35A4.19 4.19 0 0 0 55.8 5h-35z"/><path style="fill:#e4e4e4" d="M8.2 4A4.19 4.19 0 0 0 4 8.2v47.6A4.19 4.19 0 0 0 8.2 60h35C52.507 60 60 52.507 60 43.2v-35A4.19 4.19 0 0 0 55.8 4h-35z"/><path style="opacity:.1" d="M14.75 13C13.226 13 12 14.275 12 15.857v30C12 50.143 17.5 53 20.25 53H23V15.857C23 14.275 21.773 13 20.25 13zm14.092 0C27.267 13 26 14.226 26 15.75v5.5c0 1.523 1.267 2.75 2.842 2.75h17.053C50.158 24 53 18.5 53 15.75V13h-7.105zM27.32 27A1.291 1.141 0 0 0 26 28.143V42.862a1.291 1.141 0 0 0 1.936.986l7.21-3.68 7.21-3.68a1.291 1.141 0 0 0 0-1.976l-7.21-3.678-7.21-3.68A1.291 1.141 0 0 0 27.32 27z"/><path style="fill:#f04242" d="M14.75 12C13.226 12 12 13.274 12 14.857v30C12 49.143 17.5 52 20.25 52H23V14.857C23 13.274 21.773 12 20.25 12zM26 20.25c0 1.523 1.268 2.75 2.842 2.75h17.053C50.158 23 53 17.5 53 14.75V12H28.842C27.268 12 26 13.226 26 14.75z"/><path style="fill:#14a4df" d="M27.321 26A1.291 1.141 0 0 0 26 27.143V41.86a1.291 1.141 0 0 0 1.936.986l7.21-3.679 7.21-3.68a1.291 1.141 0 0 0 0-1.976l-7.21-3.679-7.21-3.68a1.291 1.141 0 0 0-.615-.153z"/><path style="fill:#fff;opacity:.2" d="M8.2 4A4.19 4.19 0 0 0 4 8.2v1A4.19 4.19 0 0 1 8.2 5h47.6A4.19 4.19 0 0 1 60 9.2v-1A4.19 4.19 0 0 0 55.8 4H8.2z"/></svg>