<?xml version="1.0" encoding="UTF-8" standalone="no"?>
<svg
   width="25"
   height="25"
   style="fill-rule:evenodd;clip-rule:evenodd;stroke-linejoin:round;stroke-miterlimit:2"
   version="1.1"
   id="svg1"
   sodipodi:docname="iconCatppuccinLatteDarkSmall.svg"
   inkscape:version="1.4.2 (ebf0e940d0, 2025-05-08)"
   xmlns:inkscape="http://www.inkscape.org/namespaces/inkscape"
   xmlns:sodipodi="http://sodipodi.sourceforge.net/DTD/sodipodi-0.dtd"
   xmlns="http://www.w3.org/2000/svg"
   xmlns:svg="http://www.w3.org/2000/svg">
  <defs
     id="defs1" />
  <sodipodi:namedview
     id="namedview1"
     pagecolor="#ffffff"
     bordercolor="#000000"
     borderopacity="0.25"
     inkscape:showpageshadow="2"
     inkscape:pageopacity="0.0"
     inkscape:pagecheckerboard="0"
     inkscape:deskcolor="#d1d1d1"
     inkscape:zoom="19.818848"
     inkscape:cx="11.806943"
     inkscape:cy="13.295425"
     inkscape:window-width="1918"
     inkscape:window-height="1040"
     inkscape:window-x="0"
     inkscape:window-y="38"
     inkscape:window-maximized="1"
     inkscape:current-layer="svg1" />
  <path
     d="M4.903 0C5.84 0 6.6.76 6.6 1.697V25H4.27A4.268 4.268 0 0 1 0 20.73V1.697C0 .76.76 0 1.697 0h3.206zM25 0v2.022A4.577 4.577 0 0 1 20.422 6.6H9.38A1.68 1.68 0 0 1 7.7 4.92V1.68C7.7.752 8.452 0 9.38 0H25zm-7.064 12.223a.645.645 0 0 1 0 1.154l-9.273 4.596a.668.668 0 0 1-.963-.597V8.224a.667.667 0 0 1 .963-.597l9.273 4.596z"
     style="fill:#4c4f69;fill-opacity:1"
     id="path1" />
</svg>
