<svg width="640" height="200" xmlns="http://www.w3.org/2000/svg" xml:space="preserve" style="fill-rule:evenodd;clip-rule:evenodd;stroke-linejoin:round;stroke-miterlimit:2"><path d="M610.803 154.398c.141.306.212.603.212.893 0 .53-.208.98-.623 1.35-.415.37-.89.555-1.422.555a1.78 1.78 0 0 1-.988-.29c-.297-.192-.533-.482-.705-.868l-1.058-2.435h-7.616l-1.082 2.435c-.172.386-.411.676-.717.868-.305.193-.638.29-.999.29-.533 0-1.015-.185-1.446-.555-.431-.37-.646-.82-.646-1.35 0-.29.071-.587.212-.893l6.206-13.07c.203-.435.505-.768.905-1.001.399-.233.842-.35 1.328-.35.47 0 .909.117 1.316.35.408.233.713.566.917 1.001l6.206 13.07zm-6.041-4.123-2.351-5.378-2.351 5.378h4.702zM620.206 144.969c.988 0 1.869.261 2.645.784.776.522 1.379 1.258 1.81 2.206.431.949.647 2.034.647 3.256s-.216 2.295-.647 3.22c-.431.924-1.03 1.635-1.798 2.134-.768.498-1.654.747-2.657.747a4.524 4.524 0 0 1-2.033-.458c-.619-.305-1.101-.715-1.446-1.23v4.1c0 .563-.188 1.013-.564 1.351-.376.337-.87.506-1.481.506-.643 0-1.16-.181-1.551-.543-.392-.361-.588-.824-.588-1.386v-12.661c0-.595.184-1.073.552-1.435.369-.362.866-.543 1.493-.543.596 0 1.077.161 1.446.483.368.321.576.747.623 1.278.329-.563.811-1.005 1.445-1.327a4.596 4.596 0 0 1 2.104-.482zm-1.269 9.14c.721 0 1.273-.249 1.657-.748.384-.498.576-1.213.576-2.146 0-.981-.196-1.732-.588-2.255-.391-.522-.948-.784-1.669-.784-.72 0-1.277.258-1.669.772-.391.515-.587 1.254-.587 2.219 0 .948.196 1.676.587 2.182.392.507.956.76 1.693.76zM634.899 144.969c.987 0 1.869.261 2.644.784.776.522 1.38 1.258 1.811 2.206.431.949.646 2.034.646 3.256s-.215 2.295-.646 3.22c-.431.924-1.031 1.635-1.799 2.134-.768.498-1.653.747-2.656.747a4.526 4.526 0 0 1-2.034-.458c-.619-.305-1.101-.715-1.445-1.23v4.1c0 .563-.188 1.013-.565 1.351-.376.337-.869.506-1.481.506-.642 0-1.159-.181-1.551-.543-.392-.361-.588-.824-.588-1.386v-12.661c0-.595.184-1.073.553-1.435.368-.362.866-.543 1.492-.543.596 0 1.078.161 1.446.483.368.321.576.747.623 1.278.329-.563.811-1.005 1.446-1.327a4.596 4.596 0 0 1 2.104-.482zm-1.27 9.14c.721 0 1.274-.249 1.658-.748.384-.498.576-1.213.576-2.146 0-.981-.196-1.732-.588-2.255-.392-.522-.948-.784-1.669-.784-.721 0-1.277.258-1.669.772-.392.515-.588 1.254-.588 2.219 0 .948.196 1.676.588 2.182.392.507.956.76 1.692.76z" style="fill-rule:nonzero"/><path d="M242.417 136.617c-1.853 0-3.339-.575-4.457-1.725-1.118-1.15-1.677-2.652-1.677-4.504V74.325c0-1.853.527-3.29 1.582-4.312 1.054-1.023 2.507-1.534 4.36-1.534h33.638c3.897 0 5.845 1.661 5.845 4.984 0 3.258-1.948 4.887-5.845 4.887h-27.409v18.4h25.492c3.897 0 5.846 1.661 5.846 4.983 0 3.259-1.949 4.888-5.846 4.888h-25.492v23.767c0 1.852-.543 3.354-1.629 4.504-1.086 1.15-2.556 1.725-4.408 1.725zM309.673 88.221c1.503-.128 2.688.223 3.555 1.054.868.831 1.301 2.076 1.301 3.737 0 1.725-.376 3.003-1.127 3.834-.752.83-2.11 1.373-4.076 1.629l-2.601.287c-3.411.384-5.911 1.662-7.501 3.834-1.59 2.172-2.385 4.887-2.385 8.146v20.125c0 1.852-.52 3.274-1.561 4.264-1.04.991-2.341 1.486-3.902 1.486s-2.847-.495-3.858-1.486c-1.012-.99-1.518-2.412-1.518-4.264V93.779c0-1.789.506-3.162 1.518-4.121 1.011-.958 2.269-1.437 3.772-1.437 1.503 0 2.717.463 3.642 1.389.925.927 1.387 2.252 1.387 3.977v3.834c1.098-2.811 2.732-4.984 4.899-6.517a14.06 14.06 0 0 1 7.241-2.587l1.214-.096zM360.691 123.2c1.136 0 2.054.415 2.756 1.246.701.83 1.052 1.948 1.052 3.354 0 1.981-1.236 3.642-3.708 4.983-2.272 1.214-4.844 2.189-7.717 2.923-2.873.735-5.612 1.102-8.218 1.102-7.884 0-14.131-2.172-18.741-6.516-4.61-4.345-6.915-10.286-6.915-17.825 0-4.792 1.002-9.041 3.007-12.746 2.004-3.706 4.827-6.581 8.468-8.625 3.641-2.045 7.767-3.067 12.377-3.067 4.41 0 8.252.927 11.525 2.779 3.274 1.853 5.813 4.473 7.617 7.859 1.804 3.386 2.706 7.379 2.706 11.979 0 2.747-1.269 4.121-3.808 4.121h-29.565c.401 4.408 1.704 7.65 3.909 9.727 2.204 2.076 5.411 3.114 9.621 3.114 2.138 0 4.025-.255 5.662-.766 1.637-.511 3.491-1.214 5.562-2.109 2.005-1.022 3.474-1.533 4.41-1.533zm-17.338-26.738c-3.408 0-6.13 1.023-8.168 3.067-2.038 2.045-3.257 4.983-3.658 8.817h22.65c-.134-3.897-1.136-6.852-3.007-8.865-1.871-2.012-4.477-3.019-7.817-3.019zM415.049 123.2c1.136 0 2.055.415 2.756 1.246.702.83 1.052 1.948 1.052 3.354 0 1.981-1.236 3.642-3.708 4.983-2.271 1.214-4.844 2.189-7.717 2.923-2.872.735-5.612 1.102-8.218 1.102-7.883 0-14.13-2.172-18.741-6.516-4.61-4.345-6.915-10.286-6.915-17.825 0-4.792 1.003-9.041 3.007-12.746 2.004-3.706 4.827-6.581 8.468-8.625 3.642-2.045 7.767-3.067 12.378-3.067 4.409 0 8.251.927 11.525 2.779 3.274 1.853 5.812 4.473 7.616 7.859 1.804 3.386 2.706 7.379 2.706 11.979 0 2.747-1.269 4.121-3.808 4.121h-29.565c.401 4.408 1.704 7.65 3.909 9.727 2.205 2.076 5.412 3.114 9.621 3.114 2.138 0 4.025-.255 5.662-.766 1.637-.511 3.491-1.214 5.562-2.109 2.005-1.022 3.475-1.533 4.41-1.533zm-17.338-26.738c-3.407 0-6.13 1.023-8.168 3.067-2.037 2.045-3.257 4.983-3.658 8.817h22.65c-.134-3.897-1.136-6.852-3.007-8.865-1.87-2.012-4.476-3.019-7.817-3.019z" style="fill:#f33;fill-rule:nonzero"/><path d="M452.658 136.617c-2.137 0-4.861-.672-6.173-2.016-1.313-1.343-1.969-3.135-1.969-5.374v-48.56h-13.833c-4.517 0-6.775-2.047-6.775-6.142 0-4.03 2.258-6.046 6.775-6.046h43.949c4.517 0 6.776 2.016 6.776 6.046 0 4.095-2.259 6.142-6.776 6.142h-13.833v48.56c0 2.239-.64 4.031-1.922 5.374-1.282 1.344-4.022 2.016-6.219 2.016zM515.741 88.529c2.236 0 4.009.607 5.319 1.821 1.31 1.214 1.964 2.875 1.964 4.983v35.171c0 1.981-.686 3.578-2.06 4.792s-3.147 1.821-5.319 1.821c-2.044 0-3.673-.575-4.887-1.725-1.214-1.15-1.821-2.684-1.821-4.6v-.959c-1.47 2.428-3.402 4.281-5.798 5.559-2.396 1.277-5.095 1.916-8.098 1.916-5.942 0-10.366-1.645-13.273-4.935-2.907-3.29-4.36-8.258-4.36-14.902V95.333c0-2.108.655-3.769 1.964-4.983 1.31-1.214 3.083-1.821 5.319-1.821 2.236 0 3.993.607 5.271 1.821s1.917 2.875 1.917 4.983v22.425c0 2.811.591 4.888 1.772 6.23 1.182 1.341 2.987 2.012 5.415 2.012 2.811 0 5.095-.958 6.852-2.875 1.757-1.917 2.636-4.44 2.636-7.571V95.333c0-2.108.638-3.769 1.916-4.983 1.278-1.214 3.035-1.821 5.271-1.821zM563.858 88.338c4.171-.001 7.853.99 11.046 2.97 3.193 1.981 5.686 4.808 7.478 8.482 1.792 3.673 2.688 7.938 2.688 12.793 0 4.856-.896 9.152-2.688 12.89-1.792 3.737-4.301 6.644-7.527 8.721-3.226 2.076-6.891 3.114-10.997 3.114-3.324 0-6.321-.686-8.993-2.06-2.672-1.374-4.725-3.274-6.159-5.702v.766c0 2.045-.651 3.69-1.955 4.936-1.303 1.246-3.063 1.869-5.278 1.869-2.216 0-3.992-.623-5.328-1.869-1.336-1.246-2.004-2.891-2.004-4.936v-55.2c0-1.98.701-3.577 2.102-4.791 1.401-1.214 3.242-1.821 5.523-1.821 2.15 0 3.877.575 5.181 1.725 1.303 1.15 1.955 2.683 1.955 4.6v20.987c1.433-2.363 3.47-4.2 6.109-5.51 2.64-1.31 5.588-1.965 8.847-1.965v.001zm-4.301 37.95c3.454 0 6.126-1.197 8.016-3.593 1.889-2.396 2.834-5.766 2.834-10.111 0-4.28-.945-7.555-2.834-9.823-1.89-2.268-4.562-3.402-8.016-3.402-3.454 0-6.126 1.166-8.016 3.498-1.89 2.332-2.835 5.638-2.835 9.919 0 4.344.945 7.683 2.835 10.015 1.89 2.332 4.562 3.498 8.016 3.498v-.001zM635.013 122.55c1.385 0 2.511.511 3.377 1.533.865 1.023 1.298 2.332 1.298 3.929 0 1.087-.346 2.093-1.039 3.019-.692.927-1.662 1.709-2.909 2.348-2.354 1.15-5.09 2.093-8.207 2.827-3.117.735-5.991 1.102-8.623 1.102-5.541 0-10.372-.99-14.493-2.971-4.121-1.98-7.289-4.807-9.506-8.481-2.216-3.673-3.324-8.002-3.324-12.985 0-4.792 1.073-9.04 3.221-12.746 2.147-3.706 5.125-6.597 8.934-8.673 3.809-2.076 8.138-3.115 12.986-3.115 4.641 0 8.71.943 12.208 2.828 3.497 1.884 6.216 4.568 8.155 8.05 1.939 3.482 2.909 7.554 2.909 12.218 0 1.406-.364 2.476-1.091 3.211-.727.734-1.749 1.102-3.065 1.102h-29.089c.485 3.769 1.731 6.501 3.74 8.194 2.009 1.693 4.883 2.539 8.623 2.539 2.009 0 3.809-.223 5.402-.671 1.593-.447 3.359-1.054 5.299-1.821a44.52 44.52 0 0 1 2.805-1.006c.9-.287 1.697-.431 2.389-.431zm-17.869-24.246c-2.978 0-5.368.879-7.168 2.636-1.801 1.757-2.875 4.296-3.221 7.618h20.051c-.208-3.386-1.126-5.941-2.753-7.666-1.628-1.725-3.931-2.588-6.909-2.588z" style="fill:#29abe1;fill-rule:nonzero"/><path d="M39.222 0C46.721 0 52.8 6.079 52.8 13.578V200H34.161a34.157 34.157 0 0 1-24.155-10.006A34.157 34.157 0 0 1 0 165.839V13.578C0 6.079 6.079 0 13.578 0h25.644zM200 0v16.174A36.626 36.626 0 0 1 163.374 52.8h-88.33c-7.425 0-13.444-6.019-13.444-13.444V13.444C61.6 6.019 67.619 0 75.044 0H200z" style="fill:#f33"/><path d="M143.486 97.784a5.15 5.15 0 0 1 0 9.232l-74.185 36.767a5.334 5.334 0 0 1-7.701-4.778v-73.21a5.334 5.334 0 0 1 7.701-4.778l74.185 36.767z" style="fill:#29abe1"/></svg>