<svg width="100" height="49" viewBox="0 0 100 49" version="1.1" xmlns="http://www.w3.org/2000/svg" xmlns:xlink="http://www.w3.org/1999/xlink" xml:space="preserve" style="fill-rule:evenodd;clip-rule:evenodd;stroke-linejoin:round;stroke-miterlimit:2;">
    <path d="M3.029,33.471c-0.452,0 -0.815,-0.141 -1.088,-0.422c-0.272,-0.282 -0.409,-0.65 -0.409,-1.104l0,-13.735c0,-0.454 0.129,-0.806 0.386,-1.057c0.257,-0.25 0.612,-0.376 1.064,-0.376l8.204,0c0.951,0 1.426,0.407 1.426,1.221c-0,0.799 -0.475,1.198 -1.426,1.198l-6.685,-0l-0,4.508l6.218,-0c0.95,-0 1.425,0.407 1.425,1.221c0,0.798 -0.475,1.197 -1.425,1.197l-6.218,0l-0,5.823c-0,0.454 -0.132,0.822 -0.397,1.104c-0.265,0.281 -0.624,0.422 -1.075,0.422Z" style="fill:#cdd6f4;fill-rule:nonzero;"/>
    <path d="M19.432,21.614c0.367,-0.031 0.656,0.055 0.868,0.258c0.211,0.204 0.317,0.509 0.317,0.916c-0,0.423 -0.092,0.736 -0.275,0.939c-0.183,0.204 -0.515,0.337 -0.994,0.399l-0.635,0.071c-0.832,0.094 -1.441,0.407 -1.829,0.939c-0.388,0.532 -0.582,1.197 -0.582,1.996l0,4.93c0,0.454 -0.127,0.803 -0.381,1.045c-0.253,0.243 -0.571,0.364 -0.951,0.364c-0.381,0 -0.695,-0.121 -0.941,-0.364c-0.247,-0.242 -0.37,-0.591 -0.37,-1.045l-0,-9.086c-0,-0.438 0.123,-0.775 0.37,-1.01c0.246,-0.234 0.553,-0.352 0.92,-0.352c0.366,0 0.662,0.114 0.888,0.34c0.226,0.228 0.338,0.552 0.338,0.975l0,0.939c0.268,-0.689 0.667,-1.221 1.195,-1.597c0.529,-0.375 1.118,-0.587 1.766,-0.633l0.296,-0.024Z" style="fill:#cdd6f4;fill-rule:nonzero;"/>
    <path d="M31.876,30.184c0.277,0 0.501,0.102 0.672,0.305c0.171,0.204 0.257,0.478 0.257,0.822c-0,0.485 -0.302,0.892 -0.905,1.221c-0.554,0.297 -1.181,0.536 -1.882,0.716c-0.701,0.18 -1.369,0.27 -2.004,0.27c-1.923,-0 -3.447,-0.532 -4.571,-1.596c-1.125,-1.065 -1.687,-2.521 -1.687,-4.368c0,-1.174 0.244,-2.215 0.734,-3.122c0.488,-0.908 1.177,-1.613 2.065,-2.113c0.888,-0.502 1.894,-0.752 3.019,-0.752c1.075,0 2.012,0.227 2.811,0.681c0.798,0.454 1.417,1.096 1.857,1.925c0.44,0.83 0.66,1.808 0.66,2.935c0,0.673 -0.309,1.01 -0.928,1.01l-7.211,-0c0.097,1.08 0.415,1.874 0.953,2.383c0.538,0.509 1.32,0.763 2.347,0.763c0.521,-0 0.981,-0.063 1.381,-0.188c0.399,-0.125 0.851,-0.297 1.356,-0.516c0.489,-0.251 0.848,-0.376 1.076,-0.376Zm-4.229,-6.551c-0.831,0 -1.495,0.251 -1.992,0.752c-0.497,0.501 -0.795,1.22 -0.892,2.16l5.524,-0c-0.033,-0.955 -0.277,-1.679 -0.733,-2.172c-0.457,-0.493 -1.092,-0.74 -1.907,-0.74Z" style="fill:#cdd6f4;fill-rule:nonzero;"/>
    <path d="M45.134,30.184c0.277,0 0.501,0.102 0.672,0.305c0.171,0.204 0.257,0.478 0.257,0.822c-0,0.485 -0.302,0.892 -0.905,1.221c-0.554,0.297 -1.181,0.536 -1.882,0.716c-0.7,0.18 -1.369,0.27 -2.004,0.27c-1.923,-0 -3.447,-0.532 -4.571,-1.596c-1.125,-1.065 -1.687,-2.521 -1.687,-4.368c0,-1.174 0.245,-2.215 0.734,-3.122c0.488,-0.908 1.177,-1.613 2.065,-2.113c0.888,-0.502 1.894,-0.752 3.019,-0.752c1.075,0 2.012,0.227 2.811,0.681c0.798,0.454 1.417,1.096 1.857,1.925c0.44,0.83 0.66,1.808 0.66,2.935c0,0.673 -0.309,1.01 -0.928,1.01l-7.211,-0c0.098,1.08 0.415,1.874 0.953,2.383c0.538,0.509 1.32,0.763 2.347,0.763c0.521,-0 0.981,-0.063 1.381,-0.188c0.399,-0.125 0.851,-0.297 1.356,-0.516c0.489,-0.251 0.848,-0.376 1.076,-0.376Zm-4.229,-6.551c-0.831,0 -1.495,0.251 -1.992,0.752c-0.497,0.501 -0.794,1.22 -0.892,2.16l5.524,-0c-0.033,-0.955 -0.277,-1.679 -0.733,-2.172c-0.456,-0.493 -1.092,-0.74 -1.907,-0.74Z" style="fill:#cdd6f4;fill-rule:nonzero;"/>
    <path d="M54.307,33.471c-0.521,0 -1.186,-0.164 -1.506,-0.494c-0.32,-0.329 -0.48,-0.768 -0.48,-1.316l-0,-11.898l-3.374,0c-1.102,0 -1.652,-0.501 -1.652,-1.504c-0,-0.988 0.55,-1.482 1.652,-1.482l10.719,0c1.102,0 1.653,0.494 1.653,1.482c0,1.003 -0.551,1.504 -1.653,1.504l-3.374,0l0,11.898c0,0.548 -0.156,0.987 -0.468,1.316c-0.313,0.33 -0.981,0.494 -1.517,0.494Z" style="fill:#cdd6f4;fill-rule:nonzero;"/>
    <path d="M69.693,21.69c0.545,-0 0.978,0.148 1.297,0.446c0.32,0.297 0.479,0.704 0.479,1.221l0,8.616c0,0.486 -0.167,0.877 -0.502,1.175c-0.335,0.297 -0.768,0.446 -1.297,0.446c-0.499,-0 -0.896,-0.141 -1.192,-0.423c-0.297,-0.282 -0.445,-0.658 -0.445,-1.127l0,-0.235c-0.358,0.595 -0.829,1.049 -1.414,1.362c-0.584,0.313 -1.242,0.469 -1.975,0.469c-1.449,0 -2.528,-0.403 -3.237,-1.209c-0.709,-0.806 -1.064,-2.023 -1.064,-3.651l0,-5.423c0,-0.517 0.16,-0.924 0.479,-1.221c0.32,-0.298 0.752,-0.446 1.298,-0.446c0.545,-0 0.974,0.148 1.285,0.446c0.312,0.297 0.468,0.704 0.468,1.221l-0,5.494c-0,0.688 0.144,1.197 0.432,1.526c0.288,0.329 0.729,0.493 1.321,0.493c0.685,0 1.243,-0.235 1.671,-0.704c0.429,-0.47 0.643,-1.088 0.643,-1.855l-0,-4.954c-0,-0.517 0.156,-0.924 0.467,-1.221c0.312,-0.298 0.741,-0.446 1.286,-0.446Z" style="fill:#cdd6f4;fill-rule:nonzero;"/>
    <path d="M81.429,21.643c1.017,-0 1.915,0.242 2.694,0.727c0.779,0.486 1.387,1.178 1.824,2.079c0.437,0.899 0.655,1.944 0.655,3.134c0,1.19 -0.218,2.242 -0.655,3.158c-0.437,0.915 -1.049,1.628 -1.836,2.137c-0.787,0.508 -1.681,0.762 -2.682,0.762c-0.811,0 -1.542,-0.168 -2.194,-0.504c-0.651,-0.337 -1.152,-0.802 -1.502,-1.397l0,0.187c0,0.501 -0.159,0.904 -0.477,1.21c-0.317,0.305 -0.747,0.458 -1.287,0.458c-0.54,-0 -0.974,-0.153 -1.299,-0.458c-0.326,-0.306 -0.489,-0.709 -0.489,-1.21l-0,-13.524c-0,-0.485 0.171,-0.876 0.512,-1.173c0.342,-0.298 0.791,-0.447 1.347,-0.447c0.525,0 0.946,0.141 1.264,0.423c0.318,0.282 0.477,0.657 0.477,1.127l-0,5.142c0.349,-0.579 0.846,-1.029 1.49,-1.35c0.644,-0.321 1.363,-0.481 2.158,-0.481l-0,-0Zm-1.049,9.298c0.842,-0 1.494,-0.294 1.955,-0.881c0.461,-0.587 0.691,-1.412 0.691,-2.477c0,-1.049 -0.23,-1.851 -0.691,-2.407c-0.461,-0.555 -1.113,-0.833 -1.955,-0.833c-0.843,-0 -1.494,0.286 -1.955,0.857c-0.461,0.571 -0.692,1.381 -0.692,2.43c0,1.064 0.231,1.882 0.692,2.454c0.461,0.571 1.112,0.857 1.955,0.857l-0,-0Z" style="fill:#cdd6f4;fill-rule:nonzero;"/>
    <path d="M98.784,30.025c0.337,-0 0.612,0.125 0.823,0.375c0.211,0.251 0.317,0.572 0.317,0.963c-0,0.266 -0.084,0.513 -0.254,0.74c-0.168,0.227 -0.405,0.418 -0.709,0.575c-0.574,0.282 -1.241,0.513 -2.002,0.692c-0.76,0.181 -1.461,0.27 -2.103,0.27c-1.351,0 -2.53,-0.242 -3.535,-0.727c-1.005,-0.486 -1.778,-1.178 -2.318,-2.078c-0.541,-0.9 -0.811,-1.961 -0.811,-3.182c-0,-1.174 0.262,-2.214 0.786,-3.122c0.523,-0.908 1.25,-1.617 2.179,-2.125c0.929,-0.509 1.984,-0.763 3.167,-0.763c1.132,-0 2.124,0.231 2.977,0.692c0.853,0.462 1.517,1.12 1.989,1.973c0.473,0.853 0.71,1.85 0.71,2.993c0,0.345 -0.089,0.607 -0.266,0.787c-0.177,0.18 -0.427,0.27 -0.748,0.27l-7.095,-0c0.119,0.923 0.423,1.593 0.913,2.007c0.49,0.415 1.191,0.622 2.103,0.622c0.49,0 0.929,-0.054 1.317,-0.164c0.389,-0.11 0.82,-0.258 1.293,-0.446c0.236,-0.094 0.464,-0.176 0.684,-0.247c0.219,-0.07 0.414,-0.105 0.583,-0.105Zm-4.359,-5.941c-0.726,0 -1.309,0.216 -1.748,0.646c-0.439,0.431 -0.701,1.053 -0.786,1.867l4.891,-0c-0.051,-0.83 -0.275,-1.456 -0.672,-1.878c-0.397,-0.423 -0.958,-0.635 -1.685,-0.635Z" style="fill:#cdd6f4;fill-rule:nonzero;"/>
</svg>
