<svg width="100" height="49" xmlns="http://www.w3.org/2000/svg" style="fill-rule:evenodd;clip-rule:evenodd;stroke-linejoin:round;stroke-miterlimit:2"><path d="M3.029 33.471c-.452 0-.815-.141-1.088-.422-.272-.282-.409-.65-.409-1.104V18.21c0-.454.129-.806.386-1.057.257-.25.612-.376 1.064-.376h8.204c.951 0 1.426.407 1.426 1.221 0 .799-.475 1.198-1.426 1.198H4.501v4.508h6.218c.95 0 1.425.407 1.425 1.221 0 .798-.475 1.197-1.425 1.197H4.501v5.823c0 .454-.132.822-.397 1.104-.265.281-.624.422-1.075.422zm16.403-11.857c.367-.031.656.055.868.258.211.204.317.509.317.916 0 .423-.092.736-.275.939-.183.204-.515.337-.994.399l-.635.071c-.832.094-1.441.407-1.829.939-.388.532-.582 1.197-.582 1.996v4.93c0 .454-.127.803-.381 1.045-.253.243-.571.364-.951.364-.381 0-.695-.121-.941-.364-.247-.242-.37-.591-.37-1.045v-9.086c0-.438.123-.775.37-1.01.246-.234.553-.352.92-.352.366 0 .662.114.888.34.226.228.338.552.338.975v.939c.268-.689.667-1.221 1.195-1.597a3.419 3.419 0 0 1 1.766-.633l.296-.024zm12.444 8.57c.277 0 .501.102.672.305.171.204.257.478.257.822 0 .485-.302.892-.905 1.221a8.382 8.382 0 0 1-1.882.716 8.06 8.06 0 0 1-2.004.27c-1.923 0-3.447-.532-4.571-1.596-1.125-1.065-1.687-2.521-1.687-4.368 0-1.174.244-2.215.734-3.122a5.2 5.2 0 0 1 2.065-2.113c.888-.502 1.894-.752 3.019-.752 1.075 0 2.012.227 2.811.681a4.7 4.7 0 0 1 1.857 1.925c.44.83.66 1.808.66 2.935 0 .673-.309 1.01-.928 1.01h-7.211c.097 1.08.415 1.874.953 2.383.538.509 1.32.763 2.347.763.521 0 .981-.063 1.381-.188.399-.125.851-.297 1.356-.516.489-.251.848-.376 1.076-.376zm-4.229-6.551c-.831 0-1.495.251-1.992.752-.497.501-.795 1.22-.892 2.16h5.524c-.033-.955-.277-1.679-.733-2.172-.457-.493-1.092-.74-1.907-.74zm17.487 6.551c.277 0 .501.102.672.305.171.204.257.478.257.822 0 .485-.302.892-.905 1.221a8.382 8.382 0 0 1-1.882.716c-.7.18-1.369.27-2.004.27-1.923 0-3.447-.532-4.571-1.596-1.125-1.065-1.687-2.521-1.687-4.368 0-1.174.245-2.215.734-3.122a5.2 5.2 0 0 1 2.065-2.113c.888-.502 1.894-.752 3.019-.752 1.075 0 2.012.227 2.811.681a4.7 4.7 0 0 1 1.857 1.925c.44.83.66 1.808.66 2.935 0 .673-.309 1.01-.928 1.01h-7.211c.098 1.08.415 1.874.953 2.383.538.509 1.32.763 2.347.763.521 0 .981-.063 1.381-.188.399-.125.851-.297 1.356-.516.489-.251.848-.376 1.076-.376zm-4.229-6.551c-.831 0-1.495.251-1.992.752-.497.501-.794 1.22-.892 2.16h5.524c-.033-.955-.277-1.679-.733-2.172-.456-.493-1.092-.74-1.907-.74zm13.402 9.838c-.521 0-1.186-.164-1.506-.494-.32-.329-.48-.768-.48-1.316V19.763h-3.374c-1.102 0-1.652-.501-1.652-1.504 0-.988.55-1.482 1.652-1.482h10.719c1.102 0 1.653.494 1.653 1.482 0 1.003-.551 1.504-1.653 1.504h-3.374v11.898c0 .548-.156.987-.468 1.316-.313.33-.981.494-1.517.494zM69.693 21.69c.545 0 .978.148 1.297.446.32.297.479.704.479 1.221v8.616c0 .486-.167.877-.502 1.175-.335.297-.768.446-1.297.446-.499 0-.896-.141-1.192-.423-.297-.282-.445-.658-.445-1.127v-.235a3.63 3.63 0 0 1-1.414 1.362c-.584.313-1.242.469-1.975.469-1.449 0-2.528-.403-3.237-1.209-.709-.806-1.064-2.023-1.064-3.651v-5.423c0-.517.16-.924.479-1.221.32-.298.752-.446 1.298-.446.545 0 .974.148 1.285.446.312.297.468.704.468 1.221v5.494c0 .688.144 1.197.432 1.526.288.329.729.493 1.321.493.685 0 1.243-.235 1.671-.704.429-.47.643-1.088.643-1.855v-4.954c0-.517.156-.924.467-1.221.312-.298.741-.446 1.286-.446zm11.736-.047c1.017 0 1.915.242 2.694.727.779.486 1.387 1.178 1.824 2.079.437.899.655 1.944.655 3.134s-.218 2.242-.655 3.158c-.437.915-1.049 1.628-1.836 2.137-.787.508-1.681.762-2.682.762-.811 0-1.542-.168-2.194-.504a3.633 3.633 0 0 1-1.502-1.397v.187c0 .501-.159.904-.477 1.21-.317.305-.747.458-1.287.458-.54 0-.974-.153-1.299-.458-.326-.306-.489-.709-.489-1.21V18.402c0-.485.171-.876.512-1.173.342-.298.791-.447 1.347-.447.525 0 .946.141 1.264.423.318.282.477.657.477 1.127v5.142a3.534 3.534 0 0 1 1.49-1.35c.644-.321 1.363-.481 2.158-.481zm-1.049 9.298c.842 0 1.494-.294 1.955-.881.461-.587.691-1.412.691-2.477 0-1.049-.23-1.851-.691-2.407-.461-.555-1.113-.833-1.955-.833-.843 0-1.494.286-1.955.857-.461.571-.692 1.381-.692 2.43 0 1.064.231 1.882.692 2.454.461.571 1.112.857 1.955.857zm18.404-.916c.337 0 .612.125.823.375.211.251.317.572.317.963 0 .266-.084.513-.254.74a2.005 2.005 0 0 1-.709.575 9.445 9.445 0 0 1-2.002.692c-.76.181-1.461.27-2.103.27-1.351 0-2.53-.242-3.535-.727-1.005-.486-1.778-1.178-2.318-2.078-.541-.9-.811-1.961-.811-3.182 0-1.174.262-2.214.786-3.122a5.526 5.526 0 0 1 2.179-2.125c.929-.509 1.984-.763 3.167-.763 1.132 0 2.124.231 2.977.692a4.895 4.895 0 0 1 1.989 1.973c.473.853.71 1.85.71 2.993 0 .345-.089.607-.266.787-.177.18-.427.27-.748.27h-7.095c.119.923.423 1.593.913 2.007.49.415 1.191.622 2.103.622.49 0 .929-.054 1.317-.164.389-.11.82-.258 1.293-.446.236-.094.464-.176.684-.247.219-.07.414-.105.583-.105zm-4.359-5.941c-.726 0-1.309.216-1.748.646-.439.431-.701 1.053-.786 1.867h4.891c-.051-.83-.275-1.456-.672-1.878-.397-.423-.958-.635-1.685-.635z" style="fill-rule:nonzero;fill:#efebd4"/></svg>