<?xml version="1.0" encoding="UTF-8" standalone="no"?>
<!DOCTYPE svg PUBLIC "-//W3C//DTD SVG 1.1//EN" "http://www.w3.org/Graphics/SVG/1.1/DTD/svg11.dtd">
<svg xmlns="http://www.w3.org/2000/svg" version="1.1" viewBox="0.00 0.00 640.00 200.00">
<path fill="#000000" d="
  M 11.57 0.00
  L 41.04 0.00
  C 50.32 1.88 52.74 7.94 52.74 16.90
  Q 52.77 108.45 52.73 200.00
  L 32.18 200.00
  Q 4.02 196.03 0.00 167.95
  L 0.00 11.45
  Q 2.16 1.96 11.57 0.00
  Z"
/>
<path fill="#000000" d="
  M 73.32 0.00
  L 200.05 0.00
  C 199.97 7.41 200.53 16.27 199.35 22.63
  C 196.82 36.35 186.46 47.68 172.96 51.40
  Q 168.21 52.71 158.29 52.73
  Q 118.56 52.79 78.82 52.73
  C 67.58 52.72 62.03 48.98 62.01 37.41
  Q 62.00 26.76 61.99 16.12
  C 61.99 7.49 64.46 1.84 73.32 0.00
  Z"
/>
<path fill="#000000" d="
  M 68.89 60.70
  L 143.21 97.87
  A 4.76 4.76 0.0 0 1 143.21 106.39
  L 68.89 143.56
  A 4.76 4.76 0.0 0 1 62.00 139.31
  L 62.00 64.95
  A 4.76 4.76 0.0 0 1 68.89 60.70
  Z"
/>
<path fill="#000000" d="
  M 425.19 71.19
  C 426.36 68.58 429.45 67.78 432.37 67.77
  Q 452.43 67.73 472.50 67.76
  C 483.18 67.77 482.98 80.35 472.92 80.23
  Q 467.38 80.17 461.83 80.29
  Q 461.27 80.30 461.27 80.86
  Q 461.22 102.84 461.25 124.74
  C 461.27 139.44 444.23 139.62 443.95 126.07
  Q 443.49 103.90 444.14 81.49
  A 1.23 1.22 0.7 0 0 442.90 80.23
  C 437.89 80.30 420.13 82.44 425.19 71.19
  Z"
/>
<path fill="#000000" d="
  M 549.36 95.98
  A 0.31 0.30 63.9 0 0 549.91 96.17
  C 558.26 84.69 575.33 84.95 581.76 98.67
  Q 587.63 111.17 582.05 124.82
  C 576.09 139.40 558.37 140.36 549.91 127.57
  A 0.37 0.36 26.5 0 0 549.24 127.79
  C 549.67 133.98 543.94 137.79 538.50 135.48
  C 535.13 134.04 534.56 130.11 534.54 126.39
  Q 534.43 101.09 534.55 75.77
  C 534.61 64.98 549.04 65.07 549.40 76.06
  Q 549.74 86.13 549.36 95.98
  Z
  M 552.13 100.64
  C 548.01 106.61 547.76 124.16 556.37 126.93
  C 571.83 131.90 572.33 104.23 564.83 98.73
  C 561.27 96.12 554.80 96.78 552.13 100.64
  Z"
/>
<path fill="#000000" d="
  M 249.00 78.49
  L 249.00 95.98
  A 0.49 0.49 0.0 0 0 249.48 96.47
  Q 260.95 96.57 272.25 96.50
  C 280.12 96.45 279.95 105.80 272.85 105.75
  Q 261.22 105.68 249.59 105.78
  Q 249.04 105.79 249.04 106.34
  C 248.97 111.94 250.40 129.56 247.66 133.55
  C 244.18 138.60 236.28 135.81 236.27 128.83
  Q 236.22 102.72 236.27 76.61
  C 236.28 71.50 238.08 68.53 243.37 68.52
  Q 258.29 68.48 273.21 68.50
  C 281.17 68.51 281.38 77.38 274.67 77.74
  Q 263.84 78.32 253.00 77.75
  Q 251.58 77.68 249.55 77.88
  Q 249.00 77.94 249.00 78.49
  Z"
/>
<path fill="#000000" d="
  M 640.00 108.74
  L 640.00 111.77
  Q 639.04 114.38 637.32 114.41
  Q 621.92 114.72 606.78 114.52
  Q 606.27 114.52 606.29 115.03
  C 607.04 129.33 621.78 127.47 630.83 124.02
  C 640.16 120.46 638.21 131.25 631.50 133.92
  C 614.30 140.77 590.36 134.57 591.43 111.54
  C 592.19 95.19 606.14 86.16 621.51 88.41
  Q 637.50 90.74 640.00 108.74
  Z
  M 606.99 108.03
  L 626.75 107.97
  A 0.55 0.55 0.0 0 0 627.30 107.41
  L 627.30 106.95
  A 10.45 10.41 89.8 0 0 616.85 96.54
  L 616.81 96.54
  A 10.45 10.41 89.8 0 0 606.44 107.03
  L 606.44 107.49
  A 0.55 0.55 0.0 0 0 606.99 108.03
  Z"
/>
<path fill="#000000" d="
  M 297.18 96.22
  A 0.09 0.09 0.0 0 0 297.35 96.26
  Q 301.94 87.93 310.24 88.52
  C 315.72 88.91 315.89 97.00 308.73 97.35
  C 300.47 97.75 297.14 103.22 297.26 110.90
  Q 297.48 125.42 296.98 131.74
  C 296.61 136.31 289.22 137.36 286.94 133.55
  Q 286.02 132.02 286.01 128.16
  Q 285.98 112.30 286.01 96.44
  Q 286.02 92.87 286.95 91.37
  C 288.76 88.43 293.87 88.16 296.08 91.03
  C 297.21 92.49 296.95 94.39 297.18 96.22
  Z"
/>
<path fill="#000000" d="
  M 319.14 115.31
  C 315.44 83.65 364.47 77.41 365.17 110.82
  C 365.23 113.72 363.20 114.21 360.67 114.22
  Q 345.63 114.32 330.79 114.19
  A 0.86 0.85 -5.0 0 0 329.94 115.20
  C 333.05 131.74 347.23 130.02 358.65 124.24
  A 2.48 2.47 -34.6 0 1 361.58 124.77
  C 365.07 128.58 358.84 132.64 355.52 134.01
  C 339.50 140.61 321.33 134.06 319.14 115.31
  Z
  M 330.62 108.54
  L 355.10 108.46
  A 0.17 0.17 0.0 0 0 355.27 108.29
  L 355.27 108.22
  A 12.44 12.39 89.8 0 0 342.84 95.82
  L 342.80 95.82
  A 12.44 12.39 89.8 0 0 330.45 108.30
  L 330.45 108.37
  A 0.17 0.17 0.0 0 0 330.62 108.54
  Z"
/>
<path fill="#000000" d="
  M 373.48 116.00
  C 368.95 84.57 417.68 76.58 419.38 110.31
  C 419.55 113.65 417.79 114.21 414.79 114.22
  Q 399.79 114.28 384.88 114.24
  A 0.69 0.68 84.7 0 0 384.21 115.05
  C 387.34 131.84 401.33 129.98 413.01 124.22
  A 2.50 2.49 64.3 0 1 416.38 125.41
  C 421.42 136.29 377.90 146.67 373.48 116.00
  Z
  M 384.82 108.48
  L 409.52 108.52
  A 0.11 0.11 0.0 0 0 409.63 108.41
  L 409.63 108.37
  A 12.53 12.46 -89.9 0 0 397.19 95.82
  L 397.19 95.82
  A 12.53 12.46 -89.9 0 0 384.71 108.33
  L 384.71 108.37
  A 0.11 0.11 0.0 0 0 384.82 108.48
  Z"
/>
<path fill="#000000" d="
  M 508.95 127.71
  A 0.23 0.22 62.4 0 0 508.54 127.58
  C 499.08 141.61 477.19 138.71 476.62 120.05
  Q 476.30 109.43 476.60 98.80
  C 476.78 92.26 478.85 86.88 486.60 89.15
  C 495.28 91.69 489.99 114.35 491.87 121.49
  C 494.03 129.70 505.26 128.60 507.96 121.73
  Q 508.77 119.64 508.75 114.18
  Q 508.71 105.59 508.81 97.02
  C 508.86 91.83 511.32 88.39 516.83 88.80
  C 523.18 89.28 523.67 94.45 523.71 100.00
  Q 523.84 114.09 523.62 128.17
  C 523.47 138.39 508.79 139.31 508.95 127.71
  Z"
/>
<path fill="#000000" d="
  M 598.81 153.74
  Q 598.58 155.48 597.40 156.70
  A 1.87 1.87 0.0 0 1 594.30 154.77
  Q 596.31 149.15 598.66 143.18
  C 600.09 139.55 603.94 138.34 605.77 142.55
  Q 607.99 147.66 609.79 152.95
  C 610.30 154.45 611.28 155.97 609.27 156.90
  C 607.40 157.76 606.42 155.16 605.81 153.54
  Q 605.60 152.99 605.00 152.99
  L 599.59 153.05
  A 0.80 0.79 3.3 0 0 598.81 153.74
  Z
  M 599.97 150.24
  A 0.33 0.33 0.0 0 0 600.28 150.68
  L 604.46 150.73
  A 0.33 0.33 0.0 0 0 604.78 150.30
  L 602.76 144.06
  A 0.33 0.33 0.0 0 0 602.14 144.05
  L 599.97 150.24
  Z"
/>
<path fill="#000000" d="
  M 616.93 146.48
  C 623.23 141.39 627.19 149.93 624.25 154.82
  C 622.49 157.75 619.25 157.65 616.85 155.60
  A 0.38 0.38 0.0 0 0 616.24 155.99
  Q 616.89 158.26 616.15 160.52
  A 1.74 1.74 0.0 0 1 612.75 159.98
  L 612.75 146.71
  A 1.51 1.50 82.8 0 1 613.88 145.25
  Q 615.50 144.83 616.19 146.31
  Q 616.45 146.87 616.93 146.48
  Z
  M 619.0039 154.8293
  A 3.85 2.49 88.9 0 0 621.4195 150.9322
  A 3.85 2.49 88.9 0 0 618.8561 147.1307
  A 3.85 2.49 88.9 0 0 616.4405 151.0278
  A 3.85 2.49 88.9 0 0 619.0039 154.8293
  Z"
/>
<path fill="#000000" d="
  M 640.00 149.86
  L 640.00 152.53
  Q 637.56 159.81 631.59 155.57
  A 0.39 0.39 0.0 0 0 630.99 156.01
  Q 631.70 158.31 630.83 160.57
  A 1.72 1.72 0.0 0 1 627.50 159.95
  L 627.50 146.75
  A 1.82 1.48 -58.7 0 1 630.60 145.65
  Q 630.73 146.11 631.02 146.39
  Q 631.37 146.75 631.77 146.45
  Q 637.57 142.15 640.00 149.86
  Z
  M 633.7238 154.8196
  A 3.85 2.49 89.2 0 0 636.1598 150.9352
  A 3.85 2.49 89.2 0 0 633.6162 147.1204
  A 3.85 2.49 89.2 0 0 631.1802 151.0048
  A 3.85 2.49 89.2 0 0 633.7238 154.8196
  Z"
/>
</svg>
