<svg id="Layer_1" data-name="Layer 1" xmlns="http://www.w3.org/2000/svg" viewBox="0 0 36.48 15.65" x="0" y="0" width="37" height="16"><defs><style>.cls-1{fill:#fff;}.cls-2{opacity:0.5;}</style></defs><title>4</title><g id="loop"><g id="loop_on" data-name="loop on"><path class="cls-1" d="M52.5,5.7a5.61,5.61,0,0,1-.77,7.9l-0.13.1a5.61,5.61,0,0,1-7.9-.77l-0.1-.13a5.63,5.63,0,0,1,.2-7.4L42.2,3.8A8,8,0,0,0,53.9,14.7a7.84,7.84,0,0,0,.2-10.6Z" transform="translate(-40.24 -1.7)"/><path class="cls-1" d="M49.6,2.5a0.64,0.64,0,0,1,.46-0.78l0.14,0h0.3L56,2.5c0.5,0.1.7,0.5,0.3,0.8l-5,5c-0.4.4-.8,0.3-0.9-0.3Z" transform="translate(-40.24 -1.7)"/></g><g id="loop_off" data-name="loop off" class="cls-2"><path class="cls-1" d="M72.7,5.9a5.61,5.61,0,0,1-.77,7.9l-0.13.1a5.7,5.7,0,0,1-8-.9A5.63,5.63,0,0,1,64,5.6L62.4,4.1A8,8,0,0,0,74.1,15a7.84,7.84,0,0,0,.2-10.6Z" transform="translate(-40.24 -1.7)"/><path class="cls-1" d="M69.8,2.8A0.64,0.64,0,0,1,70.26,2L70.4,2h0.3l5.5,0.8c0.5,0.1.7,0.5,0.3,0.8l-5,5c-0.4.4-.8,0.3-0.8-0.3Z" transform="translate(-40.24 -1.7)"/></g></g></svg>